# xmcd CD database file
#
# Track frame offsets:
#	150
#	15425
#	28782
#	43727
#	57230
#	71570
#	83192
#	96307
#	111429
#	122892
#
# Disc length: 1833 seconds
#
# Revision: 0
# Processed by: cddbd v1.4PL0 Copyright (c) Steve Scherf et al.
# Submitted via: CDex 1.40Beta6
#
DISCID=8707270a
DTITLE=Ray Conniff - S´ Country
DYEAR=2001
DGENRE=Country
TTITLE0=Pense em mim
TTITLE1=Evidências
TTITLE2=Estoy enamorado (Estou apaixonado
TTITLE3=Festa de rodeio
TTITLE4=Luar do sertão
TTITLE5=É o amor
TTITLE6=Bem te vi
TTITLE7=No rancho fundo
TTITLE8=Bailão de peão
TTITLE9=Entre tapas e beijos
EXTD=
EXTT0=
EXTT1=
EXTT2=
EXTT3=
EXTT4=
EXTT5=
EXTT6=
EXTT7=
EXTT8=
EXTT9=
PLAYORDER=
